<svg width="611" height="623" viewBox="0 0 611 623" fill="none" xmlns="http://www.w3.org/2000/svg">
<g clip-path="url(#clip0_64_51)">
<path fill-rule="evenodd" clip-rule="evenodd" d="M310.758 164.077V380.771H303.239V164.077L306.998 162.095L310.758 164.077ZM147.276 373.429H202.848V216.939L210.367 212.981V380.771H139.755V55H474.245V380.771H403.632V212.981L411.152 216.939V373.429H466.725V62.3389H147.276V373.429ZM411.152 191.893V183.551L306.998 128.707L202.848 183.551V191.893L306.998 137.049L411.152 191.893Z" fill="#CD9A57"/>
<path d="M32 509.956H38.4259V459.405H32V509.956ZM57.9634 459.405V509.956H64.3187V471.392L96.0871 509.956H100.519V459.405H94.1657V498.112L62.4727 459.405H57.9634ZM120.06 509.956H126.486V459.405H120.06V509.956ZM158.066 465.04V509.956H164.422V465.04H182.076V459.405H140.408V465.04H158.066ZM196.002 509.956H202.428V459.405H196.002V509.956ZM239.549 459.405L216.352 509.956H223.371L228.394 498.833H257.944L263.044 509.956H269.987L246.79 459.405H239.549ZM255.433 493.059H230.906L243.17 465.761L255.433 493.059ZM290.339 459.405H283.911V509.956H318.487V504.105H290.339V459.405ZM349.327 459.405V509.956H355.683V471.392L387.45 509.956H391.881V459.405H385.53V498.112L353.835 459.405H349.327ZM429.003 459.405L405.805 509.956H412.825L417.848 498.833H447.399L452.498 509.956H459.442L436.243 459.405H429.003ZM444.887 493.059H420.36L432.623 465.761L444.887 493.059ZM518.578 468.504V509.956H524.931V459.405H517.249L499.221 485.403L481.049 459.405H473.364V509.956H479.72V468.36L498.483 494.068H499.812L518.578 468.504ZM544.471 509.956H582V503.961H550.824V486.846H579.562V480.997H550.824V465.184H580.818V459.405H544.471V509.956Z" fill="white"/>
<path d="M123.703 539.487V564.477H127.216V539.487H136.977V536.353H113.939V539.487H123.703ZM157.581 536.353L144.754 564.477H148.635L151.411 558.29H167.752L170.571 564.477H174.409L161.585 536.353H157.581ZM166.363 555.075H152.801L159.58 539.89L166.363 555.075ZM210.492 540.011C207.594 537.199 203.796 535.793 199.997 535.793C190.684 535.793 185.088 542.26 185.128 550.656C185.128 558.209 189.866 565 200.037 565C204.652 565 208.206 563.273 211.108 560.216V549.091H198.975V552.182H207.878V558.853C205.509 560.861 202.773 561.704 200.076 561.704C192.318 561.704 188.641 556.36 188.641 550.656C188.641 544.469 192.646 539.044 199.997 539.044C202.895 539.044 206.203 540.21 208.45 542.341L210.492 540.011ZM229.869 536.353H226.316V564.477H245.433V561.222H229.869V536.353ZM259.01 564.477H262.563V536.353H259.01V564.477ZM279.205 536.353V564.477H282.718V543.024L300.28 564.477H302.733V536.353H299.219V557.889L281.696 536.353H279.205ZM319.373 564.477H340.122V561.141H322.887V551.622H338.775V548.367H322.887V539.568H339.469V536.353H319.373V564.477ZM385.356 564.477H388.909V536.353H385.356V548.527H369.018V536.353H365.464V564.477H369.018V551.781H385.356V564.477ZM405.55 564.477H426.302V561.141H409.064V551.622H424.952V548.367H409.064V539.568H425.647V536.353H405.55V564.477ZM460.588 564.477H465.081L455.644 554.072C461.528 553.591 463.896 549.61 463.853 545.355C463.853 540.772 460.627 536.353 454.175 536.353H441.186V564.477H444.739V554.352H451.681L460.588 564.477ZM454.01 551.218H444.739V539.487H454.175C458.298 539.487 460.343 542.621 460.3 545.432C460.3 548.608 458.298 551.218 454.01 551.218ZM479.31 564.477H500.061V561.141H482.823V551.622H498.712V548.367H482.823V539.568H499.406V536.353H479.31V564.477Z" fill="white"/>
<path d="M344.643 277.909C350.341 279.453 356.037 281.009 361.736 282.565C367.43 284.118 373.132 285.674 378.837 287.222C378.837 289.316 378.837 291.411 378.837 293.485C373.132 292.039 367.434 290.597 361.736 289.152C356.04 287.709 350.341 286.264 344.643 284.801C344.643 299.684 344.643 314.569 344.643 329.431C344.643 344.295 344.643 359.157 344.643 374.021C350.341 374.122 356.04 374.224 361.736 374.326C367.434 374.427 373.132 374.529 378.837 374.631C378.837 376.683 378.837 378.739 378.837 380.771C371.724 380.771 364.612 380.771 357.505 380.771C350.4 380.771 343.29 380.771 336.184 380.771C336.184 346.898 336.184 313.004 336.184 279.131C336.184 245.254 336.184 211.339 336.184 177.445C343.29 181.185 350.4 184.928 357.505 188.669C364.612 192.409 371.724 196.149 378.837 199.893C378.837 202.009 378.837 204.104 378.837 206.195C373.132 203.308 367.434 200.402 361.736 197.515C356.04 194.626 350.341 191.739 344.643 188.83C344.643 203.693 344.643 218.538 344.643 233.381C344.643 248.201 344.643 263.064 344.643 277.909Z" fill="#CD9A57"/>
<path d="M256.38 188.384C259.33 186.831 262.061 185.869 264.579 185.492C267.091 185.117 269.407 185.309 271.529 186.141C275.719 187.73 277.817 191.276 277.817 196.692C277.817 224.086 277.817 251.48 277.817 278.873C277.817 306.269 277.817 333.663 277.817 361.057C277.817 366.452 275.719 371.179 271.529 375.087C269.407 377.024 267.097 378.478 264.579 379.407C262.063 380.333 259.336 380.771 256.38 380.771C253.503 380.771 250.816 380.342 248.325 379.468C245.834 378.592 243.549 377.255 241.445 375.537C237.268 372.124 235.164 368.041 235.164 363.236C235.164 338.876 235.164 314.498 235.164 290.137C235.164 265.76 235.164 241.4 235.164 217.018C235.164 212.213 237.259 207.04 241.445 201.54C243.485 198.731 245.761 196.231 248.246 194.046C250.742 191.852 253.447 189.924 256.38 188.384ZM266.155 193.537C263.524 192.415 260.3 192.856 256.38 194.861C252.617 196.786 249.34 199.606 246.656 203.294C244.029 206.896 242.682 210.277 242.682 213.437C242.682 238.345 242.682 263.254 242.682 288.141C242.682 313.05 242.682 337.959 242.682 362.85C242.682 366.108 244.029 368.814 246.656 370.912C249.34 373.175 252.623 374.303 256.38 374.234C260.303 374.161 263.524 372.87 266.155 370.364C268.898 367.96 270.241 364.944 270.241 361.443C270.241 334.599 270.241 307.735 270.241 280.891C270.241 254.027 270.241 227.162 270.241 200.319C270.241 196.896 268.898 194.636 266.155 193.537Z" fill="#CD9A57"/>
</g>
<defs>
<clipPath id="clip0_64_51">
<rect width="611" height="623" fill="white"/>
</clipPath>
</defs>
</svg>
