<svg width="1207" height="1207" viewBox="0 0 1207 1207" fill="none" xmlns="http://www.w3.org/2000/svg">
<path fill-rule="evenodd" clip-rule="evenodd" d="M614.367 436.792C636.328 438.303 657.129 444.061 675.938 453.264L682.469 444.893L727.559 387.022L700 455.002L696 464.874C713.758 476.862 729.078 492.194 741.07 509.944L750.93 505.944L818.918 478.374L761.039 523.471L752.68 529.995C761.879 548.803 767.641 569.604 769.148 591.584L779.699 593.042L852.359 603.163L779.699 613.284L769.148 614.752C767.641 636.721 761.879 657.522 752.68 676.342L761.039 682.862L818.918 727.963L750.93 700.381L741.07 696.381C729.078 714.143 713.758 729.463 696 741.463L700 751.323L727.559 819.311L682.469 761.444L675.938 753.073C657.129 762.272 636.328 768.034 614.367 769.542L612.891 780.084L602.77 852.752L592.648 780.084L591.188 769.542C569.207 768.034 548.418 762.264 529.609 753.073L523.078 761.444L477.98 819.311L505.547 751.323L509.547 741.463C491.789 729.463 476.469 714.143 464.469 696.393L454.617 700.381L386.629 727.963L444.5 682.862L452.859 676.342C443.66 657.522 437.898 636.721 436.391 614.752L425.859 613.284L353.188 603.163L425.859 593.042L436.391 591.584C437.91 569.604 443.66 548.803 452.859 529.995L444.5 523.471L386.629 478.374L454.617 505.944L464.48 509.944C476.48 492.194 491.797 476.862 509.547 464.874L505.547 455.002L477.98 387.022L523.078 444.893L529.609 453.264C548.418 444.061 569.207 438.303 591.188 436.792L592.648 426.252L602.77 353.584L612.891 426.252L614.367 436.792ZM602.77 454.002C685.148 454.002 751.93 520.784 751.93 603.163C751.93 685.553 685.148 752.334 602.77 752.334C520.391 752.334 453.609 685.553 453.609 603.163C453.609 520.784 520.391 454.002 602.77 454.002Z" fill="white"/>
<path fill-rule="evenodd" clip-rule="evenodd" d="M644.738 425.592L667.367 372.092L660.23 429.713C655.148 428.131 649.988 426.752 644.738 425.592ZM732.867 471.733L779.258 436.682L744.219 483.061C740.598 479.131 736.797 475.354 732.867 471.733ZM786.219 555.721L843.859 548.561L790.348 571.202C789.188 565.963 787.809 560.792 786.219 555.721ZM790.348 655.131L843.859 677.764L786.219 670.612C787.809 665.542 789.188 660.374 790.348 655.131ZM744.219 743.264L779.258 789.655L732.867 754.604C736.797 750.995 740.598 747.202 744.219 743.264ZM660.23 796.612L667.367 854.245L644.738 800.733C649.988 799.573 655.148 798.202 660.23 796.612ZM560.797 800.733L538.18 854.245L545.328 796.612C550.398 798.202 555.57 799.573 560.797 800.733ZM472.668 754.604L426.289 789.655L461.34 743.264C464.957 747.202 468.738 750.995 472.668 754.604ZM419.328 670.612L361.699 677.764L415.199 655.131C416.367 660.374 417.73 665.542 419.328 670.612ZM415.199 571.202L361.699 548.561L419.328 555.721C417.73 560.792 416.367 565.963 415.199 571.202ZM461.34 483.061L426.289 436.682L472.668 471.733C468.738 475.354 464.957 479.131 461.34 483.061ZM545.328 429.713L538.18 372.092L560.797 425.592C555.57 426.752 550.398 428.131 545.328 429.713Z" fill="white"/>
<path fill-rule="evenodd" clip-rule="evenodd" d="M796.719 195.471C794.938 194.881 795.539 194.592 794.938 192.514C793.758 189.553 793.16 183.053 789.617 182.452C779.547 180.983 787.547 198.733 789.617 202.874C790.797 204.944 793.16 207.905 793.758 209.084C794.359 210.862 792.867 226.534 792.277 228.022C788.141 226.245 782.52 211.155 780.75 205.542C780.148 203.163 779.547 198.733 777.188 197.553C773.641 196.061 770.98 197.842 770.98 201.381C771.27 212.342 781.629 231.874 789.617 238.374C790.797 239.553 791.687 239.854 791.98 241.631C792.277 243.104 791.98 245.772 791.98 247.245C791.98 251.092 792.578 254.354 792.578 258.194C786.367 256.713 772.457 236.303 770.09 230.983C765.949 222.405 759.73 225.655 760.039 230.983C760.328 238.674 776.297 256.424 780.438 260.561C783.398 263.811 787.84 267.362 791.688 269.733C794.648 271.502 794.648 271.213 794.938 275.643C795.539 279.202 796.117 281.862 796.418 285.413C788.73 285.124 776.898 276.245 771.867 270.913C770.09 268.842 765.07 261.745 762.988 260.561C759.73 259.084 753.82 261.745 760.93 271.213C765.949 278.022 773.047 284.823 781.039 289.252C796.719 297.842 798.199 292.213 799.969 299.311C800.559 301.694 802.039 304.643 802.34 307.014C799.078 307.014 792.867 304.944 790.199 303.463C789.02 302.874 787.84 301.983 786.367 301.983C783.109 301.694 781.039 304.354 782.219 307.604C783.699 311.155 792.578 314.112 796.418 314.995C798.789 315.592 802.93 315.881 805.297 316.772C806.48 317.362 811.508 329.202 812.109 331.561C809.148 331.272 805.891 328.905 803.82 327.713C800.859 326.534 798.199 325.354 795.539 324.174C788.73 321.213 771.27 316.483 769.5 314.702C765.359 310.854 762.109 304.944 759.73 299.913C757.969 296.655 757.969 294.284 752.34 295.463L751.457 296.354C749.969 304.944 755.008 306.713 755.59 311.745C750.57 311.745 745.828 305.534 742.867 301.983C741.098 299.913 739.918 297.842 738.438 295.174C737.25 293.702 736.957 293.702 736.07 291.631C734.59 288.374 731.328 283.042 727.188 286.893C721.57 292.213 735.48 304.053 736.359 309.073C734 309.073 727.187 309.073 725.418 308.194C720.391 305.245 711.809 294.881 708.547 289.553C707.367 287.194 705.297 283.631 701.457 286.002C693.758 290.444 710.629 304.354 710.918 307.604L695.25 307.893C692.289 307.893 691.687 306.713 689.617 304.944C686.668 302.573 682.219 299.913 679.559 296.655C678.379 294.881 677.488 292.811 674.238 293.104C668.32 293.393 670.98 299.612 674.238 303.463C675.707 304.944 678.078 306.424 678.68 308.495H678.379L677.488 308.784C672.457 310.272 660.629 310.561 651.75 312.924C643.168 315.592 644.648 325.061 652.348 325.354C655 325.354 657.668 324.174 659.449 325.354C657.957 328.311 650.859 331.561 654.109 337.182C655 338.963 658.27 339.854 660.328 338.362C663.578 336.002 667.43 329.784 675.418 325.061C681.641 321.213 683.109 320.913 690.809 320.913C690.207 322.995 685.777 325.061 682.82 327.713C679.559 330.084 672.75 335.112 672.75 339.561C673.059 342.213 674.238 343.393 676.598 343.702C680.449 343.995 683.109 339.854 685.777 337.483C693.469 330.971 711.809 317.073 726.609 321.502L723.938 323.284C722.758 323.573 721.867 323.862 720.98 324.463C712.109 329.202 704.117 334.522 697.32 342.522C695.828 343.995 694.359 345.471 694.648 348.131C694.648 350.502 696.719 351.971 699.391 351.682C702.348 351.393 705.598 345.772 708.258 343.702C714.758 338.073 720.98 333.932 728.969 330.971C732.82 329.495 738.437 327.713 743.168 328.311C736.957 331.862 730.148 337.784 725.418 343.104C723.648 345.174 718.027 350.502 722.457 354.354C728.379 359.963 732.219 344.584 753.527 333.631C754.117 333.342 754.117 333.042 754.707 332.752C760.617 328.905 770.09 327.424 775.719 330.674C775.41 331.862 766.539 335.413 764.469 336.604C760.328 339.252 757.367 342.213 754.41 344.284C752.34 345.772 745.539 351.682 750.277 355.233C754.41 358.495 759.148 352.573 762.109 350.202C769.207 344.584 775.117 341.323 785.18 337.784C791.687 335.413 793.469 337.182 798.789 339.561C801.449 340.745 808.84 344.284 810.328 346.354C809.148 347.245 805.59 347.542 803.52 347.834C796.117 349.612 796.719 348.721 789.617 351.682L782.82 354.053C767.719 360.264 752.039 370.323 740.797 381.862C737.25 385.405 735.48 387.182 731.93 391.034C720.957 403.182 718.129 413.131 719.078 430.764L719.207 430.682C719.359 432.823 719.5 434.803 719.648 436.674C719.988 439.042 720.168 441.085 720.23 442.835C720.93 448.713 722.09 454.022 724.828 461.155C726.008 463.803 727.188 467.362 730.438 467.655C734.59 468.252 736.07 464.405 734.891 460.264L731.641 451.393C729.57 444.874 728.68 437.471 728.68 429.792C728.68 424.463 728.969 420.323 730.148 415.584C730.75 412.334 733.398 407.002 736.359 406.112C736.359 415.584 736.07 427.131 739.027 435.713C740.508 440.432 741.398 450.202 747.609 449.612C754.41 449.014 749.68 440.143 748.188 433.932C745.23 422.682 744.938 408.194 747.609 396.655C748.5 392.213 751.75 386.893 756.188 385.713C755.891 390.143 755.008 393.694 754.707 398.432C754.707 403.155 753.82 407.303 754.41 412.334C754.707 416.471 754.41 421.502 758.848 421.792C768.609 422.682 761.219 405.534 766.539 386.592C767.43 383.042 768.32 379.202 770.09 375.643C770.98 373.874 776.898 370.323 778.68 370.323C778.68 372.393 778.367 372.393 777.789 373.874C776.297 378.905 775.41 383.342 775.41 388.663V389.252C775.41 393.104 776.297 396.655 780.75 396.061C784.59 395.764 784.879 392.502 784.879 388.362C784.879 381.561 787.25 373.573 790.199 369.143C794.648 362.034 796.418 362.334 805.891 360.561C809.148 359.963 812.687 359.374 816.84 359.374C819.199 359.374 825.41 359.073 827.48 360.854C826.898 362.034 825.117 362.631 823.938 363.221C815.348 368.842 807.66 375.354 801.449 383.042C791.098 395.764 780.438 415.874 776.598 431.862C774.828 439.553 773.34 441.924 771.57 451.085C768.43 470.112 766.867 489.534 768 509.022L785.66 501.862C782.82 496.682 780.75 491.452 780.75 487.772C780.75 483.335 780.438 482.155 781.328 480.971C782.52 481.862 781.328 480.374 782.52 482.752C783.109 483.335 783.109 483.932 783.699 484.811C786.488 489.534 789.738 494.393 793.34 498.745L802.59 494.995C798.777 490.905 795.27 486.495 792.867 481.264C788.437 472.092 781.629 458.784 785.77 447.835C787.84 448.721 788.437 452.573 789.617 454.342C791.098 456.713 792.277 458.784 793.758 461.155C796.719 466.182 809.148 482.155 814.758 482.155C817.73 481.862 819.797 479.792 818.609 476.534C818.02 474.752 814.469 472.393 813.289 470.913C808.258 466.182 802.93 459.963 799.379 453.752C794.938 445.764 792.578 438.663 792.277 428.905C792.277 422.995 793.758 421.502 795.828 416.772C796.418 414.995 796.418 414.112 797.898 413.514C798.5 414.995 798.5 416.471 799.078 418.252C799.969 422.682 801.449 427.424 803.23 431.561C806.77 440.143 815.059 455.233 821.27 461.155C823.938 463.514 828.078 462.913 829.258 459.963C831.629 454.932 823.047 449.905 816.84 437.772C813.289 431.264 810.328 423.874 808.258 416.772C807.078 412.034 805.891 406.112 806.188 400.792C806.188 395.471 813.578 387.182 815.648 386.893C815.648 389.854 815.648 392.803 815.949 395.764C816.539 406.112 818.609 415.292 822.16 424.752C823.648 428.311 829.258 440.432 832.52 441.022C835.77 441.624 837.547 439.842 838.129 437.471C838.438 435.112 836.949 433.042 836.059 430.971C834.289 428.014 831.328 422.393 830.438 418.834C829.258 414.112 827.48 409.374 826.609 404.932C825.41 399.612 822.758 381.264 826.609 376.834C827.789 375.354 834.289 370.924 835.77 372.393C836.949 374.752 835.77 382.155 835.77 386.002C836.059 394.284 837.547 402.284 840.797 409.963C842.867 414.112 842.867 417.073 849.379 415.874C851.16 413.514 852.34 413.221 851.16 409.374C850.27 406.713 849.09 405.245 848.199 402.284C846.418 396.944 845.238 390.745 845.527 384.522C847.898 385.112 852.629 391.924 854.117 393.694C856.48 396.944 859.438 400.502 862.098 404.042C863.277 405.823 864.469 407.303 865.648 409.374C871.27 416.772 878.367 429.194 883.109 436.592C884.289 438.663 884.59 440.432 886.059 442.514L894.938 460.854C895.82 463.221 896.707 465.002 897.598 467.073C898.199 467.963 898.777 468.835 899.078 470.022C903.52 481.862 906.18 486.292 909.73 500.194L913.879 513.803C918.02 532.444 920.09 540.733 921.859 559.952C924.23 583.631 924.82 611.733 921.27 635.104C920.68 638.061 920.68 640.733 919.797 643.694C918.02 650.495 916.84 661.143 915.059 668.534C912.098 681.561 907.66 693.983 903.52 706.405C902.629 709.073 901.738 710.842 900.848 713.502L888.43 740.721C886.66 744.573 883.988 749.002 881.629 753.155C876.598 761.721 871.867 769.424 866.238 777.713C861.508 784.514 849.68 799.893 844.348 804.924C843.758 805.514 843.16 806.405 842.578 807.584C839.02 812.323 834.289 816.163 830.148 820.604C815.059 836.284 794.938 852.553 775.719 864.381C763.289 872.084 750.859 879.772 737.25 885.393C732.52 887.471 728.68 889.834 723.938 891.311C718.91 893.084 715.07 894.862 709.449 896.631C699.078 899.881 689.918 903.444 679.258 906.112C673.348 907.292 668.32 908.174 662.699 909.362C655.309 910.834 654.109 910.542 649.68 911.424C648.199 911.721 647.609 912.022 645.539 912.022C639.32 912.311 633.41 913.792 627.789 914.092C605.891 914.983 581.93 915.272 560.629 912.311L543.77 909.655C535.777 907.874 527.789 906.694 519.797 904.034C517.438 903.444 514.48 902.842 512.117 901.963C507.078 900.483 502.047 899.002 497.32 897.233C492.289 895.452 487.848 893.971 482.828 891.905L437.258 869.413C415.668 855.803 394.66 840.432 376.609 822.084C366.84 812.323 357.078 802.553 349.098 791.303L331.059 765.573C325.43 757.584 319.52 746.042 315.07 737.174C314.48 736.284 314.188 734.811 313.598 733.924C313 732.444 312.707 732.143 311.82 730.362L305.898 717.354C305.02 714.995 304.129 712.924 303.238 710.542C302.059 708.182 301.469 705.811 300.578 703.163C296.738 693.092 294.07 684.213 291.109 673.561L287.559 657.592C285.187 646.354 283.707 634.514 282.527 623.272C282.219 619.905 282.148 616.534 282.02 613.163H261C261.258 616.784 261.668 620.413 261.82 623.862C261.82 625.944 264.777 649.311 265.668 651.381L268.918 669.131C269.52 672.674 270.398 674.752 270.988 677.713C272.18 683.323 273.949 688.354 275.73 693.983C277.789 701.963 280.457 709.655 283.707 717.061L289.641 732.143C290.52 733.924 292.289 737.471 293.18 739.542C295.547 744.284 297.629 749.002 299.988 753.745L319.809 785.995C321.289 788.061 323.07 790.721 324.25 792.502C331.938 804.334 352.359 828.292 363 837.764L373.648 847.823C377.199 851.374 381.047 854.334 384.898 857.881C392.891 864.092 400.578 870.303 409.16 875.643C413.59 878.592 417.437 881.252 421.867 883.913C430.16 889.534 461.809 906.694 470.109 909.061L493.18 917.643C512.117 924.745 532.23 928.592 552.047 932.131C559.148 933.323 573.648 934.803 581.047 935.092C612.699 936.284 645.539 934.803 676.008 928.002L681.93 926.221C704.117 921.483 726.008 913.502 746.43 904.034C757.367 899.002 767.43 893.674 777.789 887.471C784 883.624 791.098 879.471 797.008 875.042L815.059 861.721C818.309 859.061 820.688 857.292 823.938 854.624C826.297 852.553 829.258 849.592 832.219 847.233C837.84 842.194 842.578 837.471 848.199 831.553C858.258 821.194 868.91 809.073 877.488 797.233C881.918 791.014 886.059 784.514 890.508 778.592C893.758 773.862 896.418 768.534 899.379 763.502C907.367 749.604 922.16 718.834 926.297 703.745L930.141 691.612C931.629 687.471 932.52 683.323 933.699 679.483L936.66 666.174C938.43 656.995 940.207 648.713 941.09 638.952L942.867 625.342C945.527 609.374 944.348 581.854 943.457 565.284C943.168 560.264 941.688 555.522 941.688 551.085C941.09 542.803 939.91 537.772 938.43 530.374L927.48 486.292L923.047 474.752C918.598 463.221 914.168 452.573 908.848 441.323L900.848 426.245C897 418.835 882.809 397.542 879.258 392.502L857.957 366.182C856.188 364.112 851.16 359.963 850.859 357.311C852.629 356.112 860.918 353.155 863.879 353.463C866.238 355.823 868.309 361.143 869.797 364.702C870.379 367.073 870.09 370.034 871.27 372.104C873.34 375.952 883.109 376.534 877.777 359.674C875.707 352.862 870.668 350.792 879.258 351.393C879.848 352.573 880.449 352.573 881.629 354.354L883.41 357.893C885.48 362.924 887.238 363.811 889.617 374.174C890.199 377.713 889.32 381.264 892.57 382.444C896.418 383.932 898.777 380.971 899.078 378.303C900.27 370.323 892.277 355.534 891.688 352.272C900.27 351.971 902.039 356.424 905 363.221C907.957 370.612 909.141 372.104 910.918 380.971C911.207 383.631 912.098 393.694 912.688 394.881C914.77 398.721 920.68 399.022 921.559 393.104C922.75 387.182 918.02 366.182 914.77 360.854C913.578 359.374 912.398 357.311 912.098 355.823C914.168 355.823 916.238 356.713 918.02 357.311C921.27 358.495 921.27 358.495 922.75 361.143C929.25 372.995 932.809 385.112 932.809 399.905C932.809 404.643 930.738 412.034 936.66 412.334C942.867 412.334 941.98 404.643 941.98 399.323C941.98 378.604 935.77 369.432 935.469 364.702C937.547 364.702 942.277 367.655 944.348 368.842C948.488 370.924 948.488 372.393 949.957 376.834C952.918 385.112 953.809 393.694 953.809 404.042C953.809 407.604 953.809 412.034 953.23 414.995C952.34 419.721 952.34 420.323 955.289 423.272C961.207 423.874 961.797 421.213 962.391 415.874C963.879 406.112 963.879 394.584 962.098 384.823C961.5 382.444 961.207 381.862 961.207 379.202C964.168 379.792 965.641 381.862 967.418 383.631L969.199 386.002C969.488 387.483 969.789 388.663 970.379 390.432C972.449 400.194 973.34 413.221 970.98 423.272C970.078 427.713 968.309 434.221 973.93 434.823C979.848 435.405 979.848 428.905 980.438 424.174C981.629 413.514 981.32 404.932 981.027 394.284C983.699 394.881 987.539 399.323 989.91 401.393C991.68 403.155 992.57 403.463 992.867 406.424C993.16 409.374 993.75 410.553 993.75 413.811C993.75 418.542 992.57 425.053 991.969 429.495C991.391 433.643 988.43 440.143 994.047 441.323C999.957 442.514 1000.56 436.002 1001.45 431.561C1002.04 429.194 1002.63 416.182 1002.93 415.584C1004.41 415.874 1007.07 419.721 1008.25 420.905C1010.92 423.573 1011.81 424.174 1011.81 428.905C1011.81 431.862 1011.5 438.362 1010.61 441.022C1009.72 443.694 1007.66 448.721 1010.03 451.682C1011.21 453.155 1012.68 453.752 1014.77 452.862C1016.83 452.264 1017.13 450.792 1018.01 449.014C1019.2 446.061 1019.49 442.514 1020.68 439.553L1021.26 438.663C1024.82 440.432 1024.22 446.944 1031.32 446.061C1036.95 445.163 1037.25 439.553 1034.29 434.823C1030.44 428.311 1021.86 418.542 1019.49 414.112C1017.42 409.963 1014.17 408.784 1011.21 404.932C1006.77 399.323 990.199 383.932 983.699 379.202C969.789 369.721 967.418 366.471 951.449 357.893C949.379 357.002 947.598 356.112 945.527 354.932C943.457 354.053 942.277 353.155 939.609 351.971C935.469 350.502 931.027 348.432 926.891 346.952C922.75 345.471 918.02 343.702 913.578 342.811C898.777 339.561 882.809 337.483 867.129 339.561C862.988 340.143 857.957 341.631 855 341.631C857.367 336.303 868.91 329.784 874.23 326.534C877.777 324.463 878.07 323.862 882.809 325.643C889.91 328.604 894.047 334.823 898.199 330.971C900.848 328.311 898.488 325.061 896.707 323.573C894.938 322.393 890.508 320.323 890.199 318.842C892.277 317.663 896.418 315.881 898.777 316.772C904.41 318.842 909.141 323.284 912.988 326.823C915.648 329.495 915.949 331.561 921.27 330.971C922.75 329.202 923.937 328.311 923.34 325.354C922.16 320.323 912.398 315.292 911.809 312.631C917.719 309.073 925.707 315.592 928.957 318.542C935.77 324.752 935.77 326.823 939.609 332.752C942.277 337.182 955.289 335.713 939.32 316.772C937.547 314.702 933.699 312.034 933.391 309.963C942.867 305.534 955 324.752 958.25 331.862C960.32 336.303 959.73 340.432 965.949 339.561C972.449 336.893 962.391 320.913 960.027 317.362C958.539 315.592 955.879 312.924 955.59 310.561C963.277 310.561 963.879 311.745 967.418 315.292C970.379 318.252 972.75 321.213 974.82 324.752C979.559 332.752 982.52 338.362 984.578 348.131C986.359 354.932 992.57 354.643 994.047 351.092C996.109 344.881 987.238 326.245 983.398 320.034C982.52 318.842 980.438 316.483 980.141 314.995C983.398 314.995 989.609 317.073 991.68 318.842C996.418 322.682 1000.56 332.752 1002.33 338.963C1003.52 342.522 1004.7 347.542 1005.29 351.971C1005.59 356.424 1005.59 362.334 1011.81 360.854C1020.97 358.194 1007.36 326.534 1007.36 324.463C1008.54 324.463 1011.5 326.245 1012.68 326.823C1018.6 330.084 1019.49 347.834 1021.26 350.502C1022.45 352.272 1025.4 352.862 1027.18 350.792C1029.85 347.834 1027.78 341.034 1027.48 336.604C1030.74 336.604 1033.1 337.182 1035.17 335.413C1036.65 334.221 1037.84 331.862 1037.25 329.202C1036.06 323.862 1018.31 314.995 1012.99 312.924L1002.93 308.784C1000.85 307.893 999.078 307.014 996.707 306.124C986.949 302.272 969.789 299.022 959.141 297.842C942.867 296.354 925.41 297.245 909.73 299.612C903.809 300.502 896.117 303.163 890.508 304.944C888.129 305.823 886.367 306.713 884.59 307.604C871.559 312.631 858.84 319.721 848.777 329.202C847.309 330.674 846.418 332.452 844.348 333.342C844.348 329.202 845.828 325.643 846.719 322.393C848.199 317.073 848.199 315.881 852.918 314.413C855.879 313.233 860.918 312.342 864.168 311.745C869.199 310.854 869.199 307.014 866.527 304.053C860.32 302.573 858.258 304.944 853.82 304.944C855 301.393 862.098 299.311 865.348 298.131C870.09 296.354 876.008 295.772 881.918 295.772C889.02 296.061 887.84 297.245 892.57 293.995C892.867 290.444 892.57 288.963 889.617 288.374C884.289 286.893 876.891 287.194 871.867 287.784C868.609 288.374 865.949 288.963 863.277 288.963C863.578 285.713 865.348 284.823 867.707 283.631C877.488 278.604 899.078 277.424 910.027 280.381C914.77 281.561 922.16 281.862 919.797 275.354C918.02 269.733 899.078 269.733 893.758 269.444C887.547 269.444 883.109 270.624 877.188 270.624C877.777 269.143 878.07 269.444 879.258 267.952C880.449 266.772 880.738 266.182 881.918 265.303C883.699 263.811 886.367 263.233 889.32 262.631C894.938 261.452 902.039 261.143 908.258 261.143C915.648 261.143 922.75 261.452 929.25 262.631C933.988 263.233 944.348 267.952 945.828 261.745C946.707 257.905 944.047 256.124 941.09 255.534C938.129 254.655 935.469 254.053 931.918 253.463C921.27 251.393 909.141 251.694 898.199 251.983C898.777 250.202 905.297 246.061 907.07 245.174C913.879 241.334 935.77 243.995 943.168 245.471C949.379 246.952 958.25 252.573 961.207 249.022C968.02 240.155 941.391 234.823 934.879 234.522C932.809 234.522 931.027 234.823 930.438 233.342C933.699 232.163 941.687 228.913 945.527 229.792C960.617 233.631 960.617 236.014 966.527 238.374C969.488 239.252 972.16 238.674 972.75 236.014C974.527 229.202 965.348 229.792 963.57 225.655C968.898 224.174 975.117 225.952 975.707 219.143C976.297 212.342 970.379 211.452 964.758 212.342C945.527 215.002 952.34 213.811 934.59 218.842C924.82 221.514 916.238 225.354 908.547 229.792C895.82 236.592 886.949 243.405 876.297 252.874C867.129 260.854 857.66 272.694 851.16 283.042C846.418 290.444 842.578 298.131 838.438 307.311C836.949 311.155 831.93 326.534 831.039 331.862L830.438 334.823C830.148 335.413 830.148 335.112 829.848 335.713C828.367 334.823 828.078 333.932 827.188 332.452L821.57 320.913C819.488 317.362 820.687 315.881 822.449 312.631C823.937 309.963 824.828 307.893 826.609 305.245C828.078 303.163 830.438 301.092 831.328 298.733C832.809 294.881 829.559 292.213 825.707 293.702C821.57 295.463 818.02 304.643 815.648 305.823C811.219 298.131 819.199 279.202 824.23 272.104C825.117 270.913 825.707 269.733 826.297 268.542L833.988 259.381C837.84 255.534 841.398 252.272 845.828 249.022C852.629 244.292 847.309 236.893 839.91 241.924C831.039 248.131 823.648 255.534 817.73 264.702L811.508 275.061C810.328 277.131 810.918 277.713 809.148 279.202L808.84 276.842C809.437 272.104 812.109 263.522 813.578 259.381C815.648 253.752 818.609 248.432 822.16 243.405C825.41 238.073 829.559 233.631 833.699 230.092C835.77 228.311 837.84 226.245 840.508 224.764C844.348 222.995 845.828 222.405 845.238 217.374C841.09 215.002 839.617 215.303 835.18 217.663L826.898 224.174C819.797 230.674 813.879 238.073 809.148 246.952L806.77 251.983C805.59 254.053 806.77 252.573 805.59 253.163C804.699 251.694 804.699 244.592 804.988 242.213C805.891 235.702 813.289 223.874 817.43 218.553C824.527 209.971 828.668 208.194 836.66 202.272C840.199 199.624 839.32 197.553 837.238 194.881C832.219 193.995 830.738 195.772 827.48 197.842C820.687 202.272 815.348 207.303 810.328 213.233C808.84 214.702 808.547 216.194 806.77 216.772C806.48 204.053 809.73 201.983 815.949 196.061C826.008 186.905 832.219 188.374 827.48 180.682C818.609 179.495 818.309 185.413 812.398 187.194C812.398 182.452 815.648 178.612 814.168 173.874C812.687 169.733 806.77 168.553 803.82 172.104C799.969 176.542 798.789 191.631 796.719 195.471Z" fill="white"/>
<path d="M106.098 1076.63V1077.74C106.02 1081.02 105.668 1084.42 105.043 1087.94C104.457 1091.45 103.617 1094.97 102.523 1098.48C101.43 1102 100.121 1105.48 98.5977 1108.91C97.0742 1112.35 95.3555 1115.63 93.4414 1118.76C91.5664 1121.92 89.5352 1124.87 87.3477 1127.61C85.1602 1130.38 82.8555 1132.82 80.4336 1134.93L71.7031 1129.89C73.0703 1127.59 74.3008 1125.07 75.3945 1122.33C76.5273 1119.64 77.543 1116.8 78.4414 1113.84C79.3398 1110.87 80.1016 1107.82 80.7266 1104.7C81.3906 1101.57 81.9375 1098.46 82.3672 1095.38C82.7969 1092.29 83.1094 1089.27 83.3047 1086.3C83.5391 1083.29 83.6562 1080.44 83.6562 1077.74C83.6562 1075.63 83.6367 1073.25 83.5977 1070.59C83.5977 1067.9 83.4414 1065.16 83.1289 1062.39C82.8555 1059.62 82.3867 1056.92 81.7227 1054.3C81.0586 1051.65 80.0625 1049.29 78.7344 1047.21C77.4453 1045.14 75.7656 1043.48 73.6953 1042.23C71.6641 1040.98 69.125 1040.36 66.0781 1040.36C63.3828 1040.36 61.0586 1040.83 59.1055 1041.77C57.1914 1042.66 55.5508 1043.89 54.1836 1045.46C52.8555 1046.98 51.7812 1048.76 50.9609 1050.79C50.1797 1052.82 49.5547 1054.97 49.0859 1057.23C48.6562 1059.46 48.3633 1061.73 48.207 1064.03C48.0898 1066.3 48.0312 1068.45 48.0312 1070.48V1086.82H73.2852V1096.49H48.0312V1117H24.7695V1074.11C24.7695 1067.98 25.7461 1062.27 27.6992 1057C29.6523 1051.73 32.4062 1047.16 35.9609 1043.29C39.5547 1039.38 43.8516 1036.34 48.8516 1034.15C53.8906 1031.92 59.4961 1030.81 65.668 1030.81C69.8477 1030.81 73.7539 1031.41 77.3867 1032.62C81.0586 1033.8 84.3984 1035.44 87.4062 1037.55C90.4141 1039.62 93.0898 1042.1 95.4336 1044.99C97.8164 1047.84 99.7891 1050.96 101.352 1054.36C102.953 1057.76 104.164 1061.36 104.984 1065.14C105.805 1068.93 106.176 1072.76 106.098 1076.63ZM185.902 1117H115.18V1106.22H115.121L159.242 1043.41H115.18V1032.62H185.902V1043.41L141.781 1106.22H185.902V1117ZM223.578 1032.62C222.523 1035.79 221.605 1039.07 220.824 1042.47C220.043 1045.83 219.398 1049.21 218.891 1052.61C218.383 1055.96 217.992 1059.29 217.719 1062.57C217.484 1065.85 217.367 1068.95 217.367 1071.88C217.367 1074.03 217.367 1076.45 217.367 1079.15C217.406 1081.8 217.562 1084.52 217.836 1087.29C218.148 1090.07 218.637 1092.78 219.301 1095.44C219.965 1098.05 220.941 1100.4 222.23 1102.47C223.559 1104.54 225.238 1106.2 227.27 1107.45C229.34 1108.7 231.898 1109.32 234.945 1109.32C237.641 1109.32 239.945 1108.88 241.859 1107.98C243.812 1107.04 245.453 1105.79 246.781 1104.23C248.148 1102.66 249.223 1100.87 250.004 1098.84C250.824 1096.8 251.449 1094.68 251.879 1092.45C252.348 1090.22 252.641 1087.98 252.758 1085.71C252.914 1083.41 252.992 1081.22 252.992 1079.15V1032.62H276.254V1075.52C276.254 1081.65 275.277 1087.35 273.324 1092.62C271.371 1097.9 268.617 1102.49 265.062 1106.39C261.508 1110.26 257.211 1113.31 252.172 1115.54C247.133 1117.72 241.547 1118.82 235.414 1118.82C231.195 1118.82 227.27 1118.21 223.637 1117C220.004 1115.83 216.664 1114.21 213.617 1112.14C210.609 1110.03 207.914 1107.55 205.531 1104.7C203.188 1101.8 201.215 1098.66 199.613 1095.26C198.051 1091.86 196.859 1088.29 196.039 1084.54C195.219 1080.75 194.848 1076.92 194.926 1073.05V1071.88C194.965 1068.76 195.277 1065.54 195.863 1062.21C196.449 1058.86 197.23 1055.5 198.207 1052.14C199.223 1048.78 200.434 1045.46 201.84 1042.18C203.246 1038.86 204.809 1035.67 206.527 1032.62H223.578ZM317.621 1117H294.359V1032.62H335.844C339.75 1032.62 343.52 1033.09 347.152 1034.03C350.785 1034.93 353.988 1036.38 356.762 1038.37C359.574 1040.32 361.801 1042.86 363.441 1045.98C365.121 1049.11 365.961 1052.9 365.961 1057.35C365.961 1060.83 365.219 1064.11 363.734 1067.2C362.289 1070.24 360.336 1072.98 357.875 1075.4C355.453 1077.78 352.66 1079.77 349.496 1081.38C346.332 1082.94 343.051 1083.97 339.652 1084.48C341.176 1087.06 342.758 1089.5 344.398 1091.8C346.078 1094.11 347.758 1096.28 349.438 1098.31C351.156 1100.3 352.855 1102.16 354.535 1103.88C356.215 1105.55 357.816 1107.1 359.34 1108.5C362.934 1111.79 366.488 1114.62 370.004 1117H341C338.656 1114.77 336.43 1112.1 334.32 1108.97C332.523 1106.32 330.707 1103.04 328.871 1099.13C327.074 1095.18 325.688 1090.63 324.711 1085.48H317.621V1117ZM342.348 1057.35C342.348 1051.69 340.961 1047.53 338.188 1044.87C335.453 1042.21 331.332 1040.89 325.824 1040.89H317.621V1077.51H325.824C328.754 1077.51 331.254 1076.96 333.324 1075.87C335.434 1074.73 337.152 1073.25 338.48 1071.41C339.809 1069.54 340.785 1067.39 341.41 1064.97C342.035 1062.55 342.348 1060.01 342.348 1057.35ZM441.547 1117H380.961V1032.62H441.547V1043.41H404.223V1069.48H433.051V1080.2H404.223V1106.22H441.547V1117ZM567.641 1094.09C567.641 1096.47 567.25 1098.7 566.469 1100.77C565.688 1102.84 564.613 1104.73 563.246 1106.45C561.879 1108.13 560.277 1109.64 558.441 1110.96C556.645 1112.29 554.691 1113.41 552.582 1114.3C550.512 1115.2 548.363 1115.89 546.137 1116.36C543.91 1116.79 541.723 1117 539.574 1117H489.945V1032.62H535.297C537.289 1032.62 539.379 1032.78 541.566 1033.09C543.754 1033.37 545.883 1033.82 547.953 1034.44C550.062 1035.07 552.055 1035.89 553.93 1036.9C555.844 1037.92 557.504 1039.17 558.91 1040.65C560.355 1042.1 561.488 1043.78 562.309 1045.69C563.168 1047.61 563.598 1049.79 563.598 1052.25C563.598 1054.6 563.129 1056.73 562.191 1058.64C561.254 1060.55 559.984 1062.27 558.383 1063.8C556.82 1065.28 555.004 1066.61 552.934 1067.78C550.902 1068.91 548.754 1069.91 546.488 1070.77C549.34 1071.55 552.035 1072.59 554.574 1073.88C557.152 1075.16 559.398 1076.75 561.312 1078.62C563.266 1080.5 564.809 1082.72 565.941 1085.3C567.074 1087.84 567.641 1090.77 567.641 1094.09ZM539.984 1054.3C539.984 1049.54 538.715 1046.06 536.176 1043.88C533.676 1041.69 530.102 1040.59 525.453 1040.59H513.207V1067.96H523.461C525.57 1067.96 527.621 1067.7 529.613 1067.2C531.605 1066.65 533.363 1065.83 534.887 1064.73C536.449 1063.6 537.68 1062.18 538.578 1060.46C539.516 1058.74 539.984 1056.69 539.984 1054.3ZM544.086 1092.62C544.086 1090.32 543.793 1088.17 543.207 1086.18C542.621 1084.15 541.723 1082.41 540.512 1080.96C539.301 1079.48 537.777 1078.33 535.941 1077.51C534.145 1076.65 532.016 1076.22 529.555 1076.22H513.207V1108.8H527.504C529.887 1108.8 532.094 1108.41 534.125 1107.62C536.156 1106.84 537.914 1105.75 539.398 1104.34C540.883 1102.94 542.035 1101.24 542.855 1099.25C543.676 1097.25 544.086 1095.05 544.086 1092.62ZM661.918 1076.63V1077.74C661.84 1081.02 661.488 1084.42 660.863 1087.94C660.277 1091.45 659.438 1094.97 658.344 1098.48C657.25 1102 655.941 1105.48 654.418 1108.91C652.895 1112.35 651.176 1115.63 649.262 1118.76C647.387 1121.92 645.355 1124.87 643.168 1127.61C640.98 1130.38 638.676 1132.82 636.254 1134.93L627.523 1129.89C628.891 1127.59 630.121 1125.07 631.215 1122.33C632.348 1119.64 633.363 1116.8 634.262 1113.84C635.16 1110.87 635.922 1107.82 636.547 1104.7C637.211 1101.57 637.758 1098.46 638.188 1095.38C638.617 1092.29 638.93 1089.27 639.125 1086.3C639.359 1083.29 639.477 1080.44 639.477 1077.74C639.477 1075.63 639.457 1073.25 639.418 1070.59C639.418 1067.9 639.262 1065.16 638.949 1062.39C638.676 1059.62 638.207 1056.92 637.543 1054.3C636.879 1051.65 635.883 1049.29 634.555 1047.21C633.266 1045.14 631.586 1043.48 629.516 1042.23C627.484 1040.98 624.945 1040.36 621.898 1040.36C619.203 1040.36 616.879 1040.83 614.926 1041.77C613.012 1042.66 611.371 1043.89 610.004 1045.46C608.676 1046.98 607.602 1048.76 606.781 1050.79C606 1052.82 605.375 1054.97 604.906 1057.23C604.477 1059.46 604.184 1061.73 604.027 1064.03C603.91 1066.3 603.852 1068.45 603.852 1070.48V1086.82H629.105V1096.49H603.852V1117H580.59V1074.11C580.59 1067.98 581.566 1062.27 583.52 1057C585.473 1051.73 588.227 1047.16 591.781 1043.29C595.375 1039.38 599.672 1036.34 604.672 1034.15C609.711 1031.92 615.316 1030.81 621.488 1030.81C625.668 1030.81 629.574 1031.41 633.207 1032.62C636.879 1033.8 640.219 1035.44 643.227 1037.55C646.234 1039.62 648.91 1042.1 651.254 1044.99C653.637 1047.84 655.609 1050.96 657.172 1054.36C658.773 1057.76 659.984 1061.36 660.805 1065.14C661.625 1068.93 661.996 1072.76 661.918 1076.63ZM741.371 1032.62L714.066 1081.55V1117H690.805V1082.84L663.207 1032.62H686.938L705.277 1075.05L724.965 1032.62H741.371ZM807.934 1117H784.672V1032.62H807.934V1069.48H838.754V1032.62H862.016V1117H838.754V1080.2H807.934V1117ZM969.184 1074.7C969.184 1081.49 968.012 1087.62 965.668 1093.09C963.324 1098.52 960.082 1103.13 955.941 1106.92C951.801 1110.71 946.898 1113.62 941.234 1115.65C935.57 1117.68 929.438 1118.7 922.836 1118.7C916.234 1118.7 910.102 1117.68 904.438 1115.65C898.773 1113.62 893.871 1110.71 889.73 1106.92C885.59 1103.13 882.348 1098.52 880.004 1093.09C877.66 1087.62 876.488 1081.49 876.488 1074.7C876.488 1067.78 877.641 1061.61 879.945 1056.18C882.289 1050.71 885.512 1046.1 889.613 1042.35C893.754 1038.56 898.656 1035.67 904.32 1033.68C909.984 1031.65 916.156 1030.63 922.836 1030.63C929.516 1030.63 935.688 1031.65 941.352 1033.68C947.016 1035.67 951.898 1038.56 956 1042.35C960.141 1046.1 963.363 1050.71 965.668 1056.18C968.012 1061.61 969.184 1067.78 969.184 1074.7ZM945.512 1074.7C945.512 1072.12 945.395 1069.48 945.16 1066.79C944.926 1064.09 944.496 1061.47 943.871 1058.93C943.246 1056.39 942.387 1054.01 941.293 1051.79C940.238 1049.56 938.871 1047.62 937.191 1045.98C935.512 1044.3 933.48 1043 931.098 1042.06C928.754 1041.08 926 1040.59 922.836 1040.59C919.633 1040.59 916.84 1041.08 914.457 1042.06C912.074 1043 910.043 1044.29 908.363 1045.93C906.684 1047.57 905.316 1049.5 904.262 1051.73C903.207 1053.95 902.367 1056.34 901.742 1058.88C901.156 1061.38 900.746 1063.99 900.512 1066.73C900.277 1069.42 900.16 1072.08 900.16 1074.7C900.16 1077.27 900.277 1079.91 900.512 1082.61C900.746 1085.3 901.176 1087.92 901.801 1090.46C902.426 1092.96 903.266 1095.32 904.32 1097.55C905.414 1099.77 906.801 1101.73 908.48 1103.41C910.16 1105.05 912.172 1106.36 914.516 1107.33C916.898 1108.31 919.672 1108.8 922.836 1108.8C925.922 1108.8 928.617 1108.31 930.922 1107.33C933.227 1106.32 935.219 1104.97 936.898 1103.29C938.578 1101.57 939.965 1099.6 941.059 1097.37C942.191 1095.11 943.07 1092.72 943.695 1090.22C944.359 1087.68 944.828 1085.09 945.102 1082.43C945.375 1079.77 945.512 1077.2 945.512 1074.7ZM1018.81 1117H995.551V1043.41H972.582V1032.62H1041.78V1043.41H1018.81V1117ZM1114.32 1117H1053.73V1032.62H1114.32V1043.41H1077V1069.48H1105.82V1080.2H1077V1106.22H1114.32V1117ZM1189.32 1117H1128.73V1032.62H1152V1106.28H1189.32V1117Z" fill="white"/>
</svg>
